<svg width="28" height="28" viewBox="0 0 28 28" fill="none" xmlns="http://www.w3.org/2000/svg">
<path fill-rule="evenodd" clip-rule="evenodd" d="M27.5 13.75C27.5 21.3438 21.3438 27.5 13.75 27.5C6.15608 27.5 0 21.3438 0 13.75C0 6.15608 6.15608 0 13.75 0C21.3438 0 27.5 6.15608 27.5 13.75ZM9.58324 9.58327C9.98597 9.18055 10.6389 9.18055 11.0417 9.58327L13.75 12.2915L16.4582 9.5833C16.8609 9.18057 17.5139 9.18057 17.9167 9.5833C18.3194 9.98602 18.3194 10.639 17.9167 11.0417L15.2083 13.75L17.9167 16.4582C18.3194 16.8609 18.3194 17.5139 17.9167 17.9167C17.5139 18.3194 16.8609 18.3194 16.4582 17.9167L13.75 15.2085L11.0417 17.9167C10.639 18.3194 9.98599 18.3194 9.58327 17.9167C9.18055 17.5139 9.18055 16.8609 9.58327 16.4583L12.2915 13.75L9.58324 11.0417C9.1805 10.639 9.1805 9.98599 9.58324 9.58327Z" fill="#A5042B"/>
</svg>
